<svg width="19" height="19" viewBox="0 0 19 19" fill="none" xmlns="http://www.w3.org/2000/svg">
<g id="frame_inspect">
<path id="frame_inspect_2" d="M2.2181 18.8334C1.69609 18.8334 1.25149 18.6498 0.884279 18.2826C0.517091 17.9154 0.333496 17.4708 0.333496 16.9487V13H1.50016V16.9487C1.50016 17.1581 1.56747 17.3302 1.70208 17.4648C1.8367 17.5994 2.0087 17.6667 2.2181 17.6667H6.16683V18.8334H2.2181ZM13.1668 18.8334V17.6667H17.1156C17.325 17.6667 17.497 17.5994 17.6316 17.4648C17.7662 17.3302 17.8335 17.1581 17.8335 16.9487V13H19.0002V16.9487C19.0002 17.4708 18.8166 17.9154 18.4494 18.2826C18.0822 18.6498 17.6376 18.8334 17.1156 18.8334H13.1668ZM0.333496 6.00002V2.05129C0.333496 1.52929 0.517091 1.08468 0.884279 0.71747C1.25149 0.350282 1.69609 0.166687 2.2181 0.166687H6.16683V1.33335H2.2181C2.0087 1.33335 1.8367 1.40066 1.70208 1.53527C1.56747 1.66989 1.50016 1.84189 1.50016 2.05129V6.00002H0.333496ZM17.8335 6.00002V2.05129C17.8335 1.84189 17.7662 1.66989 17.6316 1.53527C17.497 1.40066 17.325 1.33335 17.1156 1.33335H13.1668V0.166687H17.1156C17.6376 0.166687 18.0822 0.350282 18.4494 0.71747C18.8166 1.08468 19.0002 1.52929 19.0002 2.05129V6.00002H17.8335ZM8.56748 11.609C9.45594 11.609 10.2128 11.2964 10.838 10.6712C11.4632 10.046 11.7758 9.28913 11.7758 8.40067C11.7758 7.51219 11.4632 6.75536 10.838 6.13016C10.2128 5.50495 9.45594 5.19234 8.56748 5.19234C7.679 5.19234 6.92217 5.50495 6.29697 6.13016C5.67175 6.75536 5.35915 7.51219 5.35915 8.40067C5.35915 9.28913 5.67175 10.046 6.29697 10.6712C6.92217 11.2964 7.679 11.609 8.56748 11.609ZM14.4434 15.109L11.2239 11.867C10.835 12.1647 10.4181 12.3905 9.97308 12.5446C9.52809 12.6986 9.05956 12.7757 8.56748 12.7757C7.35144 12.7757 6.31826 12.3505 5.46794 11.5002C4.61763 10.6499 4.19248 9.61669 4.19248 8.40067C4.19248 7.18463 4.61763 6.15145 5.46794 5.30113C6.31826 4.45082 7.35144 4.02567 8.56748 4.02567C9.7835 4.02567 10.8167 4.45082 11.667 5.30113C12.5173 6.15145 12.9425 7.18463 12.9425 8.40067C12.9425 8.89275 12.8643 9.36128 12.708 9.80627C12.5517 10.2513 12.3247 10.6682 12.0271 11.0571L15.2758 14.2834L14.4434 15.109Z" fill="black"/>
</g>
</svg>
